# xmcd CD database file
#
# Track frame offsets:
#	150
#	13842
#	29817
#	44012
#	59730
#	77250
#	90000
#	107312
#	121072
#	139547
#	156280
#
# Disc length: 2331 seconds
#
# Revision: 1
# Processed by: cddbd v1.4PL0 Copyright (c) Steve Scherf et al.
# Submitted via: CDex 1.40Release
#
DISCID=8209190b
DTITLE=Alabama - Cheap Seats
DYEAR=1993
DGENRE=Country
TTITLE0=Still Goin' Strong
TTITLE1=T.L.C. A.S.A.P.
TTITLE2=Katy Brought My Guitar Back Today
TTITLE3=On This Side of the Moon
TTITLE4=The Cheap Seats
TTITLE5=Reckless
TTITLE6=That Feeling
TTITLE7=This Love's On Me
TTITLE8=Clear Water Blues
TTITLE9=A Better Word For Love
TTITLE10=Angels Among Us
EXTD=YEAR: 1993 ID3G: 2
EXTT0=
EXTT1=
EXTT2=
EXTT3=
EXTT4=
EXTT5=
EXTT6=
EXTT7=
EXTT8=
EXTT9=
EXTT10=
PLAYORDER=
